<mxfile host="Electron" modified="2023-12-18T23:08:36.866Z" agent="Mozilla/5.0 (Windows NT 10.0; Win64; x64) AppleWebKit/537.36 (KHTML, like Gecko) draw.io/22.1.2 Chrome/114.0.5735.289 Electron/25.9.4 Safari/537.36" etag="Z0olD1AH-mWH1UAh7P3-" version="22.1.2" type="device">
  <diagram name="Page-1" id="5JJXpEa-IAsGcOUEe2H3">
    <mxGraphModel dx="455" dy="688" grid="1" gridSize="10" guides="1" tooltips="1" connect="1" arrows="1" fold="1" page="1" pageScale="1" pageWidth="827" pageHeight="1169" math="0" shadow="0">
      <root>
        <mxCell id="0" />
        <mxCell id="1" parent="0" />
        <mxCell id="OW2liNCIqIWEQT1HGxbS-15" value="" style="ellipse;whiteSpace=wrap;html=1;aspect=fixed;fillColor=none;gradientColor=default;" vertex="1" parent="1">
          <mxGeometry x="25" y="275" width="30" height="30" as="geometry" />
        </mxCell>
        <mxCell id="OW2liNCIqIWEQT1HGxbS-4" value="&lt;br&gt;&lt;br&gt;&lt;br&gt;&lt;br&gt;&lt;br&gt;&lt;br&gt;&lt;br&gt;&lt;br&gt;&lt;br&gt;&lt;br&gt;&lt;br&gt;&lt;br&gt;&lt;br&gt;&lt;br&gt;&lt;br&gt;&lt;br&gt;&lt;br&gt;&lt;br&gt;&lt;br&gt;---------------------------------------------------&lt;br&gt;&lt;font color=&quot;#2cce2e&quot;&gt;entry /lancerTempo(tempsPleurs)&lt;/font&gt;&lt;br&gt;entry /delencherPleurs()&lt;br style=&quot;border-color: var(--border-color);&quot;&gt;exit /arreterPleurs()" style="rounded=1;whiteSpace=wrap;html=1;" vertex="1" parent="1">
          <mxGeometry x="370" y="20" width="220" height="360" as="geometry" />
        </mxCell>
        <mxCell id="OW2liNCIqIWEQT1HGxbS-5" value="Pleure" style="rounded=1;whiteSpace=wrap;html=1;" vertex="1" parent="1">
          <mxGeometry x="520" y="20" width="70" height="30" as="geometry" />
        </mxCell>
        <mxCell id="q0ZbsbB0DwCgqFYY0SNr-1" value="" style="ellipse;whiteSpace=wrap;html=1;aspect=fixed;fillColor=#000000;" parent="1" vertex="1">
          <mxGeometry x="30" y="90" width="20" height="20" as="geometry" />
        </mxCell>
        <mxCell id="q0ZbsbB0DwCgqFYY0SNr-3" value="" style="endArrow=open;html=1;rounded=0;exitX=1;exitY=0.5;exitDx=0;exitDy=0;entryX=0;entryY=0.5;entryDx=0;entryDy=0;endFill=0;" parent="1" source="q0ZbsbB0DwCgqFYY0SNr-1" target="q0ZbsbB0DwCgqFYY0SNr-4" edge="1">
          <mxGeometry width="50" height="50" relative="1" as="geometry">
            <mxPoint x="130" y="200" as="sourcePoint" />
            <mxPoint x="180" y="100" as="targetPoint" />
          </mxGeometry>
        </mxCell>
        <mxCell id="q0ZbsbB0DwCgqFYY0SNr-4" value="pas faim&lt;br&gt;pleure pas&lt;br&gt;&lt;font color=&quot;#2cce2e&quot;&gt;-----------------------------------------&lt;br&gt;entry&lt;br&gt;/lancerTempo(tempsAutonomie)&lt;/font&gt;" style="rounded=1;whiteSpace=wrap;html=1;" parent="1" vertex="1">
          <mxGeometry x="140" y="55" width="180" height="90" as="geometry" />
        </mxCell>
        <mxCell id="q0ZbsbB0DwCgqFYY0SNr-5" value="faim&lt;br&gt;pleure" style="rounded=1;whiteSpace=wrap;html=1;" parent="1" vertex="1">
          <mxGeometry x="410" y="75" width="140" height="50" as="geometry" />
        </mxCell>
        <mxCell id="q0ZbsbB0DwCgqFYY0SNr-7" value="à table&lt;br&gt;pleure" style="rounded=1;whiteSpace=wrap;html=1;" parent="1" vertex="1">
          <mxGeometry x="410" y="245" width="140" height="50" as="geometry" />
        </mxCell>
        <mxCell id="q0ZbsbB0DwCgqFYY0SNr-9" value="" style="endArrow=open;html=1;rounded=0;exitX=1;exitY=0.5;exitDx=0;exitDy=0;entryX=0;entryY=0.5;entryDx=0;entryDy=0;endFill=0;" parent="1" source="q0ZbsbB0DwCgqFYY0SNr-4" target="q0ZbsbB0DwCgqFYY0SNr-5" edge="1">
          <mxGeometry width="50" height="50" relative="1" as="geometry">
            <mxPoint x="130" y="110" as="sourcePoint" />
            <mxPoint x="220" y="110" as="targetPoint" />
          </mxGeometry>
        </mxCell>
        <mxCell id="q0ZbsbB0DwCgqFYY0SNr-10" value="" style="endArrow=open;html=1;rounded=0;exitX=1;exitY=0.5;exitDx=0;exitDy=0;entryX=0;entryY=0.25;entryDx=0;entryDy=0;endFill=0;" parent="1" source="q0ZbsbB0DwCgqFYY0SNr-5" target="OW2liNCIqIWEQT1HGxbS-8" edge="1">
          <mxGeometry width="50" height="50" relative="1" as="geometry">
            <mxPoint x="540" y="100" as="sourcePoint" />
            <mxPoint x="653.96" y="162.22000000000003" as="targetPoint" />
          </mxGeometry>
        </mxCell>
        <mxCell id="q0ZbsbB0DwCgqFYY0SNr-11" value="" style="endArrow=open;html=1;rounded=0;exitX=0;exitY=0.75;exitDx=0;exitDy=0;endFill=0;entryX=1;entryY=0.5;entryDx=0;entryDy=0;" parent="1" source="OW2liNCIqIWEQT1HGxbS-8" target="q0ZbsbB0DwCgqFYY0SNr-7" edge="1">
          <mxGeometry width="50" height="50" relative="1" as="geometry">
            <mxPoint x="540" y="230" as="sourcePoint" />
            <mxPoint x="653.2399999999998" y="217.53999999999985" as="targetPoint" />
          </mxGeometry>
        </mxCell>
        <mxCell id="q0ZbsbB0DwCgqFYY0SNr-15" value="" style="endArrow=open;html=1;rounded=0;entryX=0.988;entryY=0.936;entryDx=0;entryDy=0;entryPerimeter=0;exitX=0.025;exitY=0.055;exitDx=0;exitDy=0;exitPerimeter=0;endFill=0;" parent="1" source="q0ZbsbB0DwCgqFYY0SNr-7" target="q0ZbsbB0DwCgqFYY0SNr-4" edge="1">
          <mxGeometry width="50" height="50" relative="1" as="geometry">
            <mxPoint x="410" y="200" as="sourcePoint" />
            <mxPoint x="327" y="213" as="targetPoint" />
          </mxGeometry>
        </mxCell>
        <mxCell id="q0ZbsbB0DwCgqFYY0SNr-16" value="temps d&#39;autonomie écoulé&lt;br&gt;/avoirFaim()" style="text;html=1;align=center;verticalAlign=middle;resizable=0;points=[];autosize=1;strokeColor=none;fillColor=none;" parent="1" vertex="1">
          <mxGeometry x="285" y="30" width="160" height="40" as="geometry" />
        </mxCell>
        <mxCell id="q0ZbsbB0DwCgqFYY0SNr-24" value="&lt;font color=&quot;#ff0000&quot;&gt;/lancerTempo(tempsAutonomie)&lt;/font&gt;&lt;br&gt;sortir de table" style="text;html=1;align=center;verticalAlign=middle;resizable=0;points=[];autosize=1;strokeColor=none;fillColor=none;" parent="1" vertex="1">
          <mxGeometry x="135" y="160" width="190" height="40" as="geometry" />
        </mxCell>
        <mxCell id="OW2liNCIqIWEQT1HGxbS-3" value="&lt;span style=&quot;font-family: Helvetica; font-size: 12px; font-style: normal; font-variant-ligatures: normal; font-variant-caps: normal; font-weight: 400; letter-spacing: normal; orphans: 2; text-align: center; text-indent: 0px; text-transform: none; widows: 2; word-spacing: 0px; -webkit-text-stroke-width: 0px; background-color: rgb(251, 251, 251); text-decoration-thickness: initial; text-decoration-style: initial; text-decoration-color: initial; float: none; display: inline !important;&quot;&gt;&lt;font color=&quot;#ff0000&quot;&gt;/lancerTempo(tempsAutonomie)&lt;/font&gt;&lt;/span&gt;" style="text;whiteSpace=wrap;html=1;" vertex="1" parent="1">
          <mxGeometry x="30" y="20" width="180" height="30" as="geometry" />
        </mxCell>
        <mxCell id="OW2liNCIqIWEQT1HGxbS-7" value="mort" style="rounded=1;whiteSpace=wrap;html=1;" vertex="1" parent="1">
          <mxGeometry x="150" y="260" width="120" height="60" as="geometry" />
        </mxCell>
        <mxCell id="OW2liNCIqIWEQT1HGxbS-8" value="à table&lt;br&gt;ne pleure pas&lt;br&gt;---------------------------&lt;br&gt;&lt;font color=&quot;#00cc00&quot;&gt;/lancerTempo(tempsRestauration)&lt;/font&gt;&lt;br&gt;do /manger()" style="rounded=1;whiteSpace=wrap;html=1;" vertex="1" parent="1">
          <mxGeometry x="630" y="155" width="190" height="90" as="geometry" />
        </mxCell>
        <mxCell id="OW2liNCIqIWEQT1HGxbS-9" value="temps de pleurs écoulé&lt;br&gt;/mourir()" style="text;html=1;align=center;verticalAlign=middle;resizable=0;points=[];autosize=1;strokeColor=none;fillColor=none;" vertex="1" parent="1">
          <mxGeometry x="220" y="330" width="150" height="40" as="geometry" />
        </mxCell>
        <mxCell id="OW2liNCIqIWEQT1HGxbS-10" value="temps de restauration écoulé&lt;br&gt;/nePlusAvoirFaim()" style="text;html=1;align=center;verticalAlign=middle;resizable=0;points=[];autosize=1;strokeColor=none;fillColor=none;" vertex="1" parent="1">
          <mxGeometry x="600" y="250" width="180" height="40" as="geometry" />
        </mxCell>
        <mxCell id="OW2liNCIqIWEQT1HGxbS-11" value="&lt;font color=&quot;#ff0000&quot;&gt;/lancerTempo(tempsRestauration)&lt;/font&gt;&lt;br&gt;mettre à table" style="text;html=1;align=center;verticalAlign=middle;resizable=0;points=[];autosize=1;strokeColor=none;fillColor=none;" vertex="1" parent="1">
          <mxGeometry x="590" y="100" width="200" height="40" as="geometry" />
        </mxCell>
        <mxCell id="OW2liNCIqIWEQT1HGxbS-12" value="" style="endArrow=open;html=1;rounded=0;exitX=0;exitY=0.75;exitDx=0;exitDy=0;endFill=0;entryX=1;entryY=0.5;entryDx=0;entryDy=0;" edge="1" parent="1" source="OW2liNCIqIWEQT1HGxbS-4" target="OW2liNCIqIWEQT1HGxbS-7">
          <mxGeometry width="50" height="50" relative="1" as="geometry">
            <mxPoint x="424" y="258" as="sourcePoint" />
            <mxPoint x="290" y="290" as="targetPoint" />
          </mxGeometry>
        </mxCell>
        <mxCell id="OW2liNCIqIWEQT1HGxbS-13" value="" style="endArrow=open;html=1;rounded=0;exitX=0;exitY=0.5;exitDx=0;exitDy=0;endFill=0;entryX=1;entryY=0.5;entryDx=0;entryDy=0;" edge="1" parent="1" source="OW2liNCIqIWEQT1HGxbS-7" target="OW2liNCIqIWEQT1HGxbS-15">
          <mxGeometry width="50" height="50" relative="1" as="geometry">
            <mxPoint x="380" y="300" as="sourcePoint" />
            <mxPoint x="160" y="310" as="targetPoint" />
          </mxGeometry>
        </mxCell>
        <mxCell id="OW2liNCIqIWEQT1HGxbS-14" value="" style="ellipse;whiteSpace=wrap;html=1;aspect=fixed;fillColor=#000000;" vertex="1" parent="1">
          <mxGeometry x="30" y="280" width="20" height="20" as="geometry" />
        </mxCell>
      </root>
    </mxGraphModel>
  </diagram>
</mxfile>
